<?xml version="1.0" encoding="iso-8859-1"?>
<!-- Generator: Adobe Illustrator 18.1.1, SVG Export Plug-In . SVG Version: 6.00 Build 0)  -->
<svg version="1.1" id="Capa_1" xmlns="http://www.w3.org/2000/svg" xmlns:xlink="http://www.w3.org/1999/xlink" x="0px" y="0px"
	 viewBox="0 0 89.609 89.609" style="enable-background:new 0 0 89.609 89.609;" xml:space="preserve">
<g>
	<path style="fill:#030104;" d="M4.754,22.748c0,7.468,2.494,12.859,7.412,16.027c4.025,2.594,8.701,2.981,11.129,2.981
		c0.59,0,1.062-0.022,1.393-0.044c0,0-0.771,5.016,2.949,9.981l-0.168-0.002C21.023,51.693,0,53.039,0,70.322
		c0,17.585,19.309,18.478,23.182,18.478c0.303,0,0.48-0.006,0.48-0.006c0.043,0,0.32,0.011,0.791,0.011
		c2.486,0,8.912-0.312,14.879-3.213C47.072,81.833,51,75.299,51,66.167c0-8.825-5.982-14.077-10.35-17.916
		c-2.666-2.338-4.969-4.358-4.969-6.322c0-2.001,1.682-3.505,3.809-5.41c3.445-3.081,6.691-7.466,6.691-15.755
		c0-7.287-0.945-12.178-6.766-15.281c0.607-0.311,2.752-0.537,3.814-0.684C46.385,4.368,51,3.879,51,1.303V0.805H28.006
		C27.775,0.811,4.754,1.664,4.754,22.748z M41.871,67.812c0.439,7.033-5.576,12.222-14.607,12.879
		c-9.174,0.67-16.727-3.46-17.166-10.483c-0.213-3.374,1.271-6.684,4.176-9.316c2.947-2.669,6.992-4.314,11.393-4.639
		c0.52-0.033,1.035-0.054,1.549-0.054C35.705,56.199,41.455,61.188,41.871,67.812z M35.867,17.936
		c2.256,7.934-1.15,16.229-6.578,17.759c-0.623,0.175-1.27,0.265-1.922,0.265c-4.973,0-9.9-5.031-11.725-11.96
		c-1.02-3.894-0.938-7.296,0.232-10.568c1.15-3.219,3.215-5.393,5.814-6.124c0.625-0.177,1.273-0.267,1.924-0.267
		C29.617,7.04,33.477,9.53,35.867,17.936z M74.609,35.215v-15h-9.5v15h-15v9.5h15v15h9.5v-15h15v-9.5H74.609z"/>
</g>
<g>
</g>
<g>
</g>
<g>
</g>
<g>
</g>
<g>
</g>
<g>
</g>
<g>
</g>
<g>
</g>
<g>
</g>
<g>
</g>
<g>
</g>
<g>
</g>
<g>
</g>
<g>
</g>
<g>
</g>
</svg>
